<?xml version="1.0" encoding="utf-8"?>
<!-- Generator: Adobe Illustrator 24.0.0, SVG Export Plug-In . SVG Version: 6.00 Build 0)  -->
<svg version="1.1" id="Layer_1" xmlns="http://www.w3.org/2000/svg" xmlns:xlink="http://www.w3.org/1999/xlink" x="0px" y="0px"
	 viewBox="0 0 85 77.7" style="enable-background:new 0 0 85 77.7;" xml:space="preserve">
<style type="text/css">
	.st0{display:none;fill:#333D46;}
	.st1{fill:#FFFFFF;}
</style>
<path class="st0" d="M55.2,27.3H24.9c-2.8,0-5.1-2.3-5.1-5.1l0,0c0-2.8,2.3-5.1,5.1-5.1h30.3c2.8,0,5,2.3,5,5.1l0,0
	C60.3,25.1,58,27.3,55.2,27.3z"/>
<path class="st0" d="M55.2,41.8H24.9c-2.8,0-5.1-2.3-5.1-5l0,0c0-2.8,2.3-5,5.1-5h30.3c2.8,0,5,2.3,5,5l0,0
	C60.3,39.5,58,41.8,55.2,41.8z"/>
<path class="st0" d="M55.2,56.2H24.9c-2.8,0-5.1-2.3-5.1-5l0,0c0-2.8,2.3-5,5.1-5h30.3c2.8,0,5,2.3,5,5l0,0
	C60.3,54,58,56.2,55.2,56.2z"/>
<path class="st0" d="M55.9,31.7H45.1V20.9c0-2.4-2-4.4-4.4-4.4h-1.3c-2.4,0-4.4,2-4.4,4.4v10.8H24.3c-2.4,0-4.4,2-4.4,4.4v1.3
	c0,2.4,2,4.4,4.4,4.4h10.8v10.8c0,2.4,2,4.4,4.4,4.4h1.3c2.4,0,4.4-2,4.4-4.4V41.8H56c2.4,0,4.4-2,4.4-4.4v-1.3
	C60.3,33.7,58.3,31.7,55.9,31.7z"/>
<path class="st1" d="M41,5.2C29.3,6,19.6,15.3,18.6,27C18,33.6,20.2,39.7,24,44.4c6.1,7.4,10.6,15.9,13.8,24.8l0,0
	c1.6,4.4,7.7,4.4,9.3,0l0.1-0.1c3.3-9,8-17.5,14-25c3.3-4.1,5.3-9.3,5.3-15C66.5,15.4,54.9,4.4,41,5.2z M44.4,38.1
	c-6.3,1-11.7-4.4-10.7-10.7c0.6-3.8,3.7-6.9,7.6-7.6c6.3-1,11.7,4.4,10.7,10.7C51.3,34.4,48.2,37.5,44.4,38.1z"/>
</svg>
