<?xml version="1.0" encoding="utf-8"?>
<!-- Generator: Adobe Illustrator 24.0.0, SVG Export Plug-In . SVG Version: 6.00 Build 0)  -->
<svg version="1.1" id="Layer_1" xmlns="http://www.w3.org/2000/svg" xmlns:xlink="http://www.w3.org/1999/xlink" x="0px" y="0px"
	 viewBox="0 0 85 77.7" style="enable-background:new 0 0 85 77.7;" xml:space="preserve">
<style type="text/css">
	.st0{display:none;fill:#333D46;}
	.st1{fill:#FFFFFF;}
</style>
<path class="st0" d="M55.2,27.3H24.9c-2.8,0-5.1-2.3-5.1-5.1l0,0c0-2.8,2.3-5.1,5.1-5.1h30.3c2.8,0,5,2.3,5,5.1l0,0
	C60.3,25.1,58,27.3,55.2,27.3z"/>
<path class="st0" d="M55.2,41.8H24.9c-2.8,0-5.1-2.3-5.1-5l0,0c0-2.8,2.3-5,5.1-5h30.3c2.8,0,5,2.3,5,5l0,0
	C60.3,39.5,58,41.8,55.2,41.8z"/>
<path class="st0" d="M55.2,56.2H24.9c-2.8,0-5.1-2.3-5.1-5l0,0c0-2.8,2.3-5,5.1-5h30.3c2.8,0,5,2.3,5,5l0,0
	C60.3,54,58,56.2,55.2,56.2z"/>
<path class="st0" d="M55.9,31.7H45.1V20.9c0-2.4-2-4.4-4.4-4.4h-1.3c-2.4,0-4.4,2-4.4,4.4v10.8H24.3c-2.4,0-4.4,2-4.4,4.4v1.3
	c0,2.4,2,4.4,4.4,4.4h10.8v10.8c0,2.4,2,4.4,4.4,4.4h1.3c2.4,0,4.4-2,4.4-4.4V41.8H56c2.4,0,4.4-2,4.4-4.4v-1.3
	C60.3,33.7,58.3,31.7,55.9,31.7z"/>
<path class="st1" d="M64.3,33.6c-0.6,0-1.2,0.1-1.7,0.1c-1.2-9.8-9.5-17.3-19.6-17.3c-10.7,0-19.4,8.5-19.7,19.1c0,0,0,0,0,0
	c-7.1,0-12.9,5.8-12.9,12.9s5.8,12.9,12.9,12.9c5.1,0,9.5-2.9,11.6-7.2c2.5,1.1,5.2,1.8,8.1,1.8c5.3,0,10.1-2.1,13.6-5.5
	c1.9,2.1,4.6,3.5,7.7,3.5c5.6,0,10.1-4.5,10.1-10.1S70,33.6,64.3,33.6z"/>
</svg>
