<?xml version="1.0" encoding="utf-8"?>
<!-- Generator: Adobe Illustrator 24.0.0, SVG Export Plug-In . SVG Version: 6.00 Build 0)  -->
<svg version="1.1" id="Layer_1" xmlns="http://www.w3.org/2000/svg" xmlns:xlink="http://www.w3.org/1999/xlink" x="0px" y="0px"
	 viewBox="0 0 85 77.7" style="enable-background:new 0 0 85 77.7;" xml:space="preserve">
<style type="text/css">
	.st0{fill:#FFFFFF;}
</style>
<path class="st0" d="M13.3,14.1c0,0-5.6,11.1,4.5,18.2c0,0-5.3-0.4-6-1.5c0,0-0.6,8.9,10.8,13.7c0,0-5.8,0.9-6.3,0
	c0,0,3.4,9.9,12.4,9.8c0,0-9.9,7.4-19.7,5.3c0,0,21.7,14.7,42.5,0.4s17.5-35.8,17.5-35.8s5.4-2.6,7.1-6.4c0,0-5.8,2.3-8.1,1.3
	c0,0,6.1-3.4,6.1-7.6c0,0-7.7,4.3-10.8,3c0,0-7.7-5.9-16.7-0.3s-4.2,14.6-4.2,14.6S25.6,28.6,13.3,14.1z"/>
</svg>
