<?xml version="1.0" encoding="utf-8"?>
<!-- Generator: Adobe Illustrator 24.0.0, SVG Export Plug-In . SVG Version: 6.00 Build 0)  -->
<svg version="1.1" id="Layer_1" xmlns="http://www.w3.org/2000/svg" xmlns:xlink="http://www.w3.org/1999/xlink" x="0px" y="0px"
	 viewBox="0 0 49 49" style="enable-background:new 0 0 49 49;" xml:space="preserve">
<style type="text/css">
	.st0{display:none;fill:#333D46;}
	.st1{fill:#333D46;}
</style>
<path class="st0" d="M44.43,20.89h-3.96c-0.41-1.66-1.07-3.22-1.93-4.64l2.79-2.79c1.54-1.54,1.54-4.04,0-5.58
	c-1.54-1.54-4.04-1.54-5.58,0l-2.82,2.82c-1.38-0.83-2.9-1.46-4.51-1.86V4.88c0-2.18-1.77-3.94-3.94-3.94s-3.94,1.77-3.94,3.94v3.96
	c-1.29,0.32-2.53,0.79-3.68,1.39L13.1,6.49c-1.54-1.54-4.04-1.54-5.58,0s-1.54,4.04,0,5.58l3.4,3.4c-1.12,1.62-1.96,3.45-2.45,5.42
	H4.52c-2.18,0-3.94,1.77-3.94,3.94s1.77,3.94,3.94,3.94h3.96c0.4,1.61,1.03,3.13,1.86,4.51L7.52,36.1c-1.54,1.54-1.54,4.04,0,5.58
	s4.04,1.54,5.58,0l2.78-2.78c1.42,0.87,2.98,1.53,4.64,1.93v3.96c0,2.18,1.77,3.94,3.94,3.94s3.94-1.77,3.94-3.94v-3.96
	c1.97-0.48,3.8-1.32,5.42-2.45l1.9,1.9c1.54,1.54,4.04,1.54,5.58,0c1.54-1.54,1.54-4.04,0-5.58l-2.25-2.25
	c0.6-1.15,1.08-2.39,1.39-3.68h3.96c2.18,0,3.94-1.77,3.94-3.94S46.61,20.89,44.43,20.89z M24.24,32.49c-4.36,0-7.89-3.53-7.89-7.89
	s3.53-7.89,7.89-7.89s7.89,3.53,7.89,7.89S28.6,32.49,24.24,32.49z"/>
<path class="st0" d="M39.64,15.45H9.31c-2.79,0-5.05-2.26-5.05-5.05v0c0-2.79,2.26-5.05,5.05-5.05h30.33c2.79,0,5.05,2.26,5.05,5.05
	v0C44.69,13.18,42.43,15.45,39.64,15.45z"/>
<path class="st0" d="M39.64,29.89H9.31c-2.79,0-5.05-2.26-5.05-5.05v0c0-2.79,2.26-5.05,5.05-5.05h30.33c2.79,0,5.05,2.26,5.05,5.05
	v0C44.69,27.63,42.43,29.89,39.64,29.89z"/>
<path class="st0" d="M39.64,44.33H9.31c-2.79,0-5.05-2.26-5.05-5.05v0c0-2.79,2.26-5.05,5.05-5.05h30.33c2.79,0,5.05,2.26,5.05,5.05
	v0C44.69,42.07,42.43,44.33,39.64,44.33z"/>
<path class="st1" d="M40.29,19.78H29.53V9.02c0-2.43-1.97-4.4-4.4-4.4h-1.3c-2.43,0-4.4,1.97-4.4,4.4v10.76H8.66
	c-2.43,0-4.4,1.97-4.4,4.4v1.3c0,2.43,1.97,4.4,4.4,4.4h10.76v10.76c0,2.43,1.97,4.4,4.4,4.4h1.3c2.43,0,4.4-1.97,4.4-4.4V29.89
	h10.76c2.43,0,4.4-1.97,4.4-4.4v-1.3C44.69,21.75,42.72,19.78,40.29,19.78z"/>
</svg>
