<?xml version="1.0" encoding="utf-8"?>
<!-- Generator: Adobe Illustrator 24.0.0, SVG Export Plug-In . SVG Version: 6.00 Build 0)  -->
<svg version="1.1" id="Layer_1" xmlns="http://www.w3.org/2000/svg" xmlns:xlink="http://www.w3.org/1999/xlink" x="0px" y="0px"
	 viewBox="0 0 49 49" style="enable-background:new 0 0 49 49;" xml:space="preserve">
<style type="text/css">
	.st0{display:none;fill:#333D46;}
	.st1{fill:#333D46;}
	.st2{fill:none;stroke:#333D46;stroke-width:6;stroke-linecap:round;stroke-miterlimit:10;}
</style>
<path class="st0" d="M44.4,20.9h-4c-0.4-1.7-1.1-3.2-1.9-4.6l2.8-2.8c1.5-1.5,1.5-4,0-5.6s-4-1.5-5.6,0l-2.8,2.8
	c-1.4-0.8-2.9-1.5-4.5-1.9v-4c0-2.2-1.8-3.9-3.9-3.9s-3.9,1.8-3.9,3.9v4c-1.3,0.3-2.5,0.8-3.7,1.4l-3.8-3.7c-1.5-1.5-4-1.5-5.6,0
	s-1.5,4,0,5.6l3.4,3.4c-1.1,1.6-2,3.5-2.4,5.4h-4c-2.2,0-3.9,1.8-3.9,3.9s1.8,3.9,3.9,3.9h4c0.4,1.6,1,3.1,1.9,4.5l-2.8,2.8
	c-1.5,1.5-1.5,4,0,5.6s4,1.5,5.6,0l2.8-2.8c1.4,0.9,3,1.5,4.6,1.9v4c0,2.2,1.8,3.9,3.9,3.9s3.9-1.8,3.9-3.9v-4
	c2-0.5,3.8-1.3,5.4-2.5l1.9,1.9c1.5,1.5,4,1.5,5.6,0s1.5-4,0-5.6l-2.2-2.2c0.6-1.1,1.1-2.4,1.4-3.7h4c2.2,0,3.9-1.8,3.9-3.9
	S46.6,20.9,44.4,20.9z M24.2,32.5c-4.4,0-7.9-3.5-7.9-7.9s3.5-7.9,7.9-7.9s7.9,3.5,7.9,7.9S28.6,32.5,24.2,32.5z"/>
<path class="st0" d="M40.3,19.8H29.5V9c0-2.4-2-4.4-4.4-4.4h-1.3c-2.4,0-4.4,2-4.4,4.4v10.8H8.7c-2.4,0-4.4,2-4.4,4.4v1.3
	c0,2.4,2,4.4,4.4,4.4h10.8v10.8c0,2.4,2,4.4,4.4,4.4h1.3c2.4,0,4.4-2,4.4-4.4V29.9h10.8c2.4,0,4.4-2,4.4-4.4v-1.3
	C44.7,21.8,42.7,19.8,40.3,19.8z"/>
<path class="st1" d="M17.6,26.7H10c-1.4,0-2.5-1.1-2.5-2.5v0c0-1.4,1.1-2.5,2.5-2.5h7.6c1.4,0,2.5,1.1,2.5,2.5v0
	C20.1,25.6,19,26.7,17.6,26.7z"/>
<path class="st1" d="M21.5,23.5"/>
<path class="st1" d="M19.9,16.1l7.2,7.2c0.7,0.7,0.7,1.7,0,2.4l-7.2,7.2C18.9,34,17,33.2,17,31.7V17.3C17,15.8,18.9,15,19.9,16.1z"
	/>
<path class="st2" d="M27,9.4h7.5c2.8,0,5,2.3,5,5v20.1c0,2.8-2.3,5-5,5h-8"/>
</svg>
