<?xml version="1.0" encoding="utf-8"?>
<!-- Generator: Adobe Illustrator 24.0.0, SVG Export Plug-In . SVG Version: 6.00 Build 0)  -->
<svg version="1.1" id="Layer_1" xmlns="http://www.w3.org/2000/svg" xmlns:xlink="http://www.w3.org/1999/xlink" x="0px" y="0px"
	 viewBox="0 0 161 183" style="enable-background:new 0 0 161 183;" xml:space="preserve">
<style type="text/css">
	.st0{fill:#2684FE;}
</style>
<g>
	<g>
		<path class="st0" d="M4.81,178.65c-2.9-2.9-4.35-7.05-4.35-12.45V60.5c0-5.4,1.45-9.55,4.35-12.45c2.89-2.89,7.04-4.35,12.45-4.35
			h39.91c15.41,0,28.68,2.8,39.81,8.4c11.13,5.6,19.66,13.6,25.59,24.01c5.93,10.41,8.89,22.79,8.89,37.14
			c0,14.49-2.93,26.97-8.79,37.44c-5.86,10.47-14.36,18.48-25.49,24.01c-11.13,5.53-24.47,8.3-40.01,8.3H17.26
			C11.86,183,7.71,181.55,4.81,178.65z M54.6,153.76c13.56,0,23.74-3.33,30.53-9.98c6.78-6.65,10.18-16.82,10.18-30.53
			c0-13.7-3.39-23.84-10.18-30.43c-6.78-6.58-16.96-9.88-30.53-9.88H36.82v80.81H54.6z"/>
	</g>
</g>
<g>
	<g>
		<path class="st0" d="M137.47,89.51c1.32,6.12,2.02,12.65,2.02,19.65c0,0.61-0.04,1.2-0.05,1.8c0.81-0.47,1.6-1.01,2.29-1.71
			c4.28-4.28,4.28-11.21,0-15.49L137.47,89.51z"/>
		<path class="st0" d="M150.36,55.41h-10.99c-1.13-4.61-2.96-8.95-5.37-12.89l7.75-7.75c4.28-4.28,4.28-11.21,0-15.49
			s-11.21-4.28-15.49,0l-7.82,7.82c-3.85-2.3-8.06-4.06-12.53-5.16V10.95C105.9,4.9,101,0,94.95,0C88.9,0,84,4.9,84,10.95v10.99
			c-3.59,0.88-7.02,2.19-10.22,3.87l-10.4-10.4c-4.28-4.28-11.21-4.28-15.49,0c-4.28,4.28-4.28,11.21,0,15.49l4.23,4.23h8.3
			c16.41,0,30.53,2.98,42.38,8.94c11.85,5.96,20.93,14.48,27.24,25.56c2.76,4.84,4.88,10.12,6.43,15.76
			c1.19-2.58,2.21-5.26,2.91-8.08h10.99c6.05,0,10.95-4.9,10.95-10.95C161.31,60.31,156.41,55.41,150.36,55.41z"/>
	</g>
</g>
</svg>
